HIERARCHY
ROOT Hips
{
    OFFSET   0.000000   0.000000   0.000000
    CHANNELS 6 Xposition Yposition Zposition Zrotation Xrotation Yrotation
    JOINT Chest
    {
        OFFSET   0.000000   8.007230   0.000000
        CHANNELS 3 Zrotation Xrotation Yrotation
        JOINT Chest2
        {
            OFFSET   0.000000  22.077100   0.000000
            CHANNELS 3 Zrotation Xrotation Yrotation
            JOINT Neck
            {
                OFFSET   0.000000  23.255100   0.000000
                CHANNELS 3 Zrotation Xrotation Yrotation
                JOINT Head
                {
                    OFFSET   0.000000  14.370100   1.956600
                    CHANNELS 3 Zrotation Xrotation Yrotation
                    End Site
                    {
                        OFFSET   0.000000  19.566000   0.000000
                    }
                }
            }
            JOINT LeftCollar
            {
                OFFSET   3.911900  19.017000  -0.467063
                CHANNELS 3 Zrotation Xrotation Yrotation
                JOINT LeftShoulder
                {
                    OFFSET  10.383700   0.000000   0.000000
                    CHANNELS 3 Zrotation Xrotation Yrotation
                    JOINT LeftElbow
                    {
                        OFFSET  26.662100   0.001193   0.000980
                        CHANNELS 3 Zrotation Xrotation Yrotation
                        JOINT LeftWrist
                        {
                            OFFSET  28.869000  -0.000059  -0.000082
                            CHANNELS 3 Zrotation Xrotation Yrotation
                            JOINT LeftFinger0
                            {
                                OFFSET   2.044650  -2.323450   3.252850
                                CHANNELS 3 Zrotation Xrotation Yrotation
                                JOINT LeftFinger01
                                {
                                    OFFSET   3.088130   0.000000   0.000000
                                    CHANNELS 3 Zrotation Xrotation Yrotation
                                    JOINT LeftFinger02
                                    {
                                        OFFSET   2.639460   0.000000   0.000000
                                        CHANNELS 3 Zrotation Xrotation Yrotation
                                        End Site
                                        {
                                            OFFSET   2.582190   0.000000   0.000000
                                        }
                                    }
                                }
                            }
                            JOINT LeftFinger1
                            {
                                OFFSET   8.364480   0.000000   3.252850
                                CHANNELS 3 Zrotation Xrotation Yrotation
                                JOINT LeftFinger11
                                {
                                    OFFSET   4.646930   0.000000   0.000000
                                    CHANNELS 3 Zrotation Xrotation Yrotation
                                    JOINT LeftFinger12
                                    {
                                        OFFSET   2.323470   0.000000   0.000000
                                        CHANNELS 3 Zrotation Xrotation Yrotation
                                        End Site
                                        {
                                            OFFSET   2.273050   0.000000   0.000000
                                        }
                                    }
                                }
                            }
                            JOINT LeftFinger2
                            {
                                OFFSET   8.364490   0.000016   1.078090
                                CHANNELS 3 Zrotation Xrotation Yrotation
                                JOINT LeftFinger21
                                {
                                    OFFSET   5.111610   0.000000   0.000000
                                    CHANNELS 3 Zrotation Xrotation Yrotation
                                    JOINT LeftFinger22
                                    {
                                        OFFSET   2.788150   0.000016   0.000000
                                        CHANNELS 3 Zrotation Xrotation Yrotation
                                        End Site
                                        {
                                            OFFSET   2.727660   0.000000   0.000000
                                        }
                                    }
                                }
                            }
                            JOINT LeftFinger3
                            {
                                OFFSET   7.899780   0.000015  -1.078090
                                CHANNELS 3 Zrotation Xrotation Yrotation
                                JOINT LeftFinger31
                                {
                                    OFFSET   4.646930   0.000000   0.000000
                                    CHANNELS 3 Zrotation Xrotation Yrotation
                                    JOINT LeftFinger32
                                    {
                                        OFFSET   2.323470   0.000000   0.000000
                                        CHANNELS 3 Zrotation Xrotation Yrotation
                                        End Site
                                        {
                                            OFFSET   2.273050   0.000000   0.000000
                                        }
                                    }
                                }
                            }
                            JOINT LeftFinger4
                            {
                                OFFSET   7.435090   0.000000  -3.252850
                                CHANNELS 3 Zrotation Xrotation Yrotation
                                JOINT LeftFinger41
                                {
                                    OFFSET   3.717550   0.000000   0.000000
                                    CHANNELS 3 Zrotation Xrotation Yrotation
                                    JOINT LeftFinger42
                                    {
                                        OFFSET   1.858770   0.000000   0.000000
                                        CHANNELS 3 Zrotation Xrotation Yrotation
                                        End Site
                                        {
                                            OFFSET   1.818440   0.000000   0.000000
                                        }
                                    }
                                }
                            }
                        }
                    }
                }
            }
            JOINT RightCollar
            {
                OFFSET  -3.911910  19.017000  -0.467062
                CHANNELS 3 Zrotation Xrotation Yrotation
                JOINT RightShoulder
                {
                    OFFSET -10.383700   0.000014   0.000000
                    CHANNELS 3 Zrotation Xrotation Yrotation
                    JOINT RightElbow
                    {
                        OFFSET -26.662100   0.001225   0.001091
                        CHANNELS 3 Zrotation Xrotation Yrotation
                        JOINT RightWrist
                        {
                            OFFSET -28.869000  -0.000020  -0.000085
                            CHANNELS 3 Zrotation Xrotation Yrotation
                            JOINT RightFinger0
                            {
                                OFFSET  -2.044650  -2.323490   3.252850
                                CHANNELS 3 Zrotation Xrotation Yrotation
                                JOINT RightFinger01
                                {
                                    OFFSET  -3.088130   0.000000   0.000000
                                    CHANNELS 3 Zrotation Xrotation Yrotation
                                    JOINT RightFinger02
                                    {
                                        OFFSET  -2.639460   0.000000   0.000000
                                        CHANNELS 3 Zrotation Xrotation Yrotation
                                        End Site
                                        {
                                            OFFSET  -2.582190   0.000000   0.000000
                                        }
                                    }
                                }
                            }
                            JOINT RightFinger1
                            {
                                OFFSET  -8.364480   0.000000   3.252850
                                CHANNELS 3 Zrotation Xrotation Yrotation
                                JOINT RightFinger11
                                {
                                    OFFSET  -4.646930   0.000000   0.000000
                                    CHANNELS 3 Zrotation Xrotation Yrotation
                                    JOINT RightFinger12
                                    {
                                        OFFSET  -2.323470   0.000000   0.000000
                                        CHANNELS 3 Zrotation Xrotation Yrotation
                                        End Site
                                        {
                                            OFFSET  -2.273050   0.000000   0.000000
                                        }
                                    }
                                }
                            }
                            JOINT RightFinger2
                            {
                                OFFSET  -8.364480   0.000000   1.078090
                                CHANNELS 3 Zrotation Xrotation Yrotation
                                JOINT RightFinger21
                                {
                                    OFFSET  -5.111620   0.000000   0.000000
                                    CHANNELS 3 Zrotation Xrotation Yrotation
                                    JOINT RightFinger22
                                    {
                                        OFFSET  -2.788160   0.000000   0.000000
                                        CHANNELS 3 Zrotation Xrotation Yrotation
                                        End Site
                                        {
                                            OFFSET  -2.727660   0.000000   0.000000
                                        }
                                    }
                                }
                            }
                            JOINT RightFinger3
                            {
                                OFFSET  -7.899780   0.000000  -1.078090
                                CHANNELS 3 Zrotation Xrotation Yrotation
                                JOINT RightFinger31
                                {
                                    OFFSET  -4.646930   0.000000   0.000000
                                    CHANNELS 3 Zrotation Xrotation Yrotation
                                    JOINT RightFinger32
                                    {
                                        OFFSET  -2.323470   0.000000   0.000000
                                        CHANNELS 3 Zrotation Xrotation Yrotation
                                        End Site
                                        {
                                            OFFSET  -2.273050   0.000000   0.000000
                                        }
                                    }
                                }
                            }
                            JOINT RightFinger4
                            {
                                OFFSET  -7.435090   0.000000  -3.252850
                                CHANNELS 3 Zrotation Xrotation Yrotation
                                JOINT RightFinger41
                                {
                                    OFFSET  -3.717550   0.000000   0.000000
                                    CHANNELS 3 Zrotation Xrotation Yrotation
                                    JOINT RightFinger42
                                    {
                                        OFFSET  -1.858760   0.000000   0.000000
                                        CHANNELS 3 Zrotation Xrotation Yrotation
                                        End Site
                                        {
                                            OFFSET  -1.818440   0.000000   0.000000
                                        }
                                    }
                                }
                            }
                        }
                    }
                }
            }
        }
    }
    JOINT LeftHip
    {
        OFFSET   9.783030   0.000000   0.000000
        CHANNELS 3 Zrotation Xrotation Yrotation
        JOINT LeftKnee
        {
            OFFSET   0.000063 -41.789100   0.000608
            CHANNELS 3 Zrotation Xrotation Yrotation
            JOINT LeftAnkle
            {
                OFFSET   0.000048 -41.133200  -0.000184
                CHANNELS 3 Zrotation Xrotation Yrotation
                JOINT LeftToe
                {
                    OFFSET   0.000000  -6.358960  14.674500
                    CHANNELS 3 Zrotation Xrotation Yrotation
                    End Site
                    {
                        OFFSET   0.000000   0.000000   3.913200
                    }
                }
            }
        }
    }
    JOINT RightHip
    {
        OFFSET  -9.783030   0.000000   0.000000
        CHANNELS 3 Zrotation Xrotation Yrotation
        JOINT RightKnee
        {
            OFFSET   0.000071 -41.789100   0.001239
            CHANNELS 3 Zrotation Xrotation Yrotation
            JOINT RightAnkle
            {
                OFFSET   0.000037 -41.133200  -0.000166
                CHANNELS 3 Zrotation Xrotation Yrotation
                JOINT RightToe
                {
                    OFFSET   0.000000  -6.358960  14.674500
                    CHANNELS 3 Zrotation Xrotation Yrotation
                    End Site
                    {
                        OFFSET   0.000000   0.000000   3.913200
                    }
                }
            }
        }
    }
}
MOTION
Frames: 5
Frame Time:   0.016667
  0.858467  89.559300  -1.105390  -3.357370  -8.213610  -4.701310   0.718012   4.900060   0.342813   1.414270   9.804000   0.627169   1.253340  -0.429639   0.007341   2.057280  -0.869848   4.896810  -5.492870  -2.474630   3.337110 -71.957600  20.699300  -0.994392  -1.777960  -6.909080 -16.543800  16.532100 -10.496700   8.029260  36.632500  28.541900 -51.746000 -34.126900  -0.005295  -0.003549 -12.076700   0.002409  -0.036606 -33.757000   6.624810  -9.793520 -28.084200   0.017069  -0.002339 -19.660700   0.012001   0.001390 -28.678700  -2.170580   3.960910 -40.353600   0.032544   0.007774 -26.879500   0.017742   0.013550 -28.724900  -2.173780   3.959160 -43.072100   0.016078   0.001440 -28.686000   0.009864   0.004313 -33.119200  -2.470740   3.781140 -49.796100   0.011368   0.006029 -33.168300   0.004483   0.004978   9.648720   0.188069   7.255820  68.088000  20.528400  -5.524210  -2.234140  -3.273420  14.179700 -11.768000 -11.852000  -2.993880 -37.321300  26.048800  54.799800  30.123300   0.004313  -0.004554  10.061600   0.009283  -0.001501  30.583600   7.111250  11.830400  25.626600  -0.005615   0.001513  17.938600   0.002926   0.005925  28.616200   2.527100   4.620850  39.385300  -0.000873   0.001798  26.230600   0.001059   0.013852  28.065200   2.482700   4.644810  33.151100   0.001422   0.004716  22.078600   0.001803   0.001321  35.264700   0.176831   0.250052  52.897600   0.004829   0.000155  35.229800   0.001664   0.004175   2.493160  11.503900   4.389580   0.923893   0.194571   6.589850  -0.959999  -4.340200   3.292140   0.000000   0.000000  -0.000000   1.572670   9.576930  -1.115310  -0.511071   1.070780  -5.986840  -0.030957  -2.992560  -0.374239   0.000000   0.000000   0.000000
  0.858400  89.559300  -1.105370  -3.356720  -8.206440  -4.701220   0.719216   4.902370   0.342963   1.416650   9.808610   0.627410   1.247830  -0.418456   0.007335   2.049120  -0.847392   4.902280  -5.497370  -2.487420   3.337150 -71.961500  20.694100  -0.983643  -1.785900  -6.908780 -16.539000  16.530300 -10.484500   8.028950  36.630700  28.534100 -51.730100 -34.126900  -0.005310  -0.003558 -12.076700   0.002410  -0.041456 -33.749400   6.624590  -9.795130 -28.078100   0.025962  -0.013079 -19.660700   0.020046  -0.004782 -28.678800  -2.169940   3.959760 -40.348500   0.055431  -0.006215 -26.874200   0.036135   0.009475 -28.725000  -2.173140   3.958010 -43.063100   0.027364  -0.007930 -28.680000   0.018348   0.000196 -33.114700  -2.469780   3.780200 -49.791600   0.026626   0.001032 -33.163500   0.015027   0.005220   9.671200   0.159883   7.274870  68.079800  20.539200  -5.556840  -2.244040  -3.249070  14.178800 -11.793500 -11.835700  -3.020800 -37.310400  26.059500  54.848300  30.146200   0.004307  -0.004548  10.073100   0.009281  -0.001512  30.597900   7.119900  11.837700  25.639400  -0.005612   0.001490  17.947500   0.002927   0.005925  28.615100   2.534070   4.633450  39.425200  -0.000868   0.001801  26.257100   0.001044   0.013853  28.067900   2.489550   4.657480  33.175400   0.001428   0.004714  22.094800   0.001792   0.001327  35.287800   0.171374   0.242153  52.932200   0.004832   0.000136  35.252900   0.001654   0.004166   2.492380  11.512000   4.389720   0.925300   0.165649   6.582670  -0.958653  -4.322860   3.302490   0.000000   0.000000   0.000000   1.570450   9.568740  -1.108990  -0.505265   1.068260  -5.987100  -0.030867  -2.989370  -0.374121  -0.000000   0.000000   0.000000
  0.858298  89.559300  -1.105350  -3.355670  -8.195170  -4.701090   0.723141   4.907440   0.344010   1.424470   9.818780   0.629055   1.235600  -0.400706   0.007317   2.030170  -0.811686   4.912470  -5.505910  -2.508630   3.337220 -71.967600  20.682300  -0.966831  -1.798250  -6.905790 -16.531000  16.528500 -10.472300   8.028640  36.626900  28.520300 -51.710000 -34.126900  -0.005325  -0.003568 -12.076600   0.002411  -0.046305 -33.741900   6.623230  -9.796730 -28.071900   0.034854  -0.028802 -19.660800   0.028092  -0.014289 -28.679000  -2.169290   3.958610 -40.343500   0.078318  -0.026557 -26.868800   0.054528   0.001885 -28.725100  -2.172510   3.956850 -43.050800   0.039318  -0.022289 -28.671800   0.029222  -0.006714 -33.108500  -2.468820   3.779250 -49.785000   0.048318  -0.007633 -33.156800   0.030556   0.005462   9.717280   0.095863   7.311800  68.058100  20.564700  -5.625980  -2.259880  -3.201200  14.177600 -11.820000 -11.799200  -3.057210 -37.277500  26.055900  54.922000  30.180000   0.004289  -0.004541  10.090000   0.009273  -0.001534  30.621400   7.133800  11.849300  25.660400  -0.005601   0.001436  17.962200   0.002933   0.005919  28.613700   2.543090   4.649330  39.488300  -0.000854   0.001804  26.299200   0.001006   0.013855  28.072700   2.498760   4.673270  33.215900   0.001439   0.004711  22.121800   0.001766   0.001339  35.328300   0.161797   0.228299  52.992900   0.004837   0.000086  35.293300   0.001628   0.004140   2.491460  11.520100   4.389930   0.926700   0.136726   6.575490  -0.957314  -4.305510   3.312840   0.000000   0.000000  -0.000000   1.566380   9.555800  -1.100170  -0.496403   1.063490  -5.987360  -0.030761  -2.984320  -0.373923   0.000000   0.000000  -0.000000
  0.858219  89.559200  -1.107310  -3.355090  -8.185950  -4.703380   0.730508   4.913800   0.347984   1.438950   9.831580   0.636263   1.218620  -0.388503   0.007285   2.002380  -0.786971   4.922060  -5.515990  -2.524920   3.332960 -71.976400  20.661300  -0.955623  -1.805430  -6.894890 -16.524200  16.536000 -10.477000   8.034520  36.617300  28.507700 -51.701600 -34.132800  -0.005323  -0.003552 -12.076600   0.002400  -0.037351 -33.744000   6.617860  -9.788840 -28.072500   0.033165  -0.037990 -19.660800   0.027667  -0.020589 -28.678400  -2.173420   3.966950 -40.350000   0.073437  -0.037982 -26.873200   0.053498  -0.008094 -28.724500  -2.177080   3.965200 -43.046500   0.040098  -0.032875 -28.669000   0.032011  -0.013770 -33.105600  -2.473220   3.787300 -49.781200   0.058798  -0.017315 -33.154100   0.039958   0.005401   9.775520   0.005912   7.355890  68.022900  20.593700  -5.722370  -2.264550  -3.143860  14.182000 -11.807500 -11.750800  -3.064820 -37.236100  26.013500  54.978100  30.200800   0.004260  -0.004554  10.100400   0.009258  -0.001558  30.643800   7.146120  11.858800  25.680200  -0.005577   0.001363  17.976100   0.002948   0.005905  28.613500   2.545500   4.653150  39.541500  -0.000830   0.001804  26.334600   0.000950   0.013857  28.078000   2.501500   4.676910  33.256400   0.001454   0.004708  22.148800   0.001728   0.001353  35.374700   0.150774   0.212372  53.062500   0.004843   0.000004  35.339600   0.001587   0.004100   2.493470  11.487400   4.390340   0.926022   0.190452   6.578920  -0.962712  -4.325320   3.311690  -0.000000   0.000000   0.000000   1.562430   9.545000  -1.096920  -0.491284   1.057950  -5.985990  -0.030900  -2.980790  -0.373725   0.000000   0.000000  -0.000000
  0.858176  89.559200  -1.110050  -3.354980  -8.180800  -4.706840   0.739456   4.922150   0.353699   1.456380   9.848400   0.646940   1.199560  -0.377101   0.007242   1.970890  -0.763852   4.934640  -5.525790  -2.541990   3.323600 -71.986000  20.646900  -0.945889  -1.813000  -6.886750 -16.518700  16.543800 -10.483800   8.040460  36.610300  28.500600 -51.698700 -34.142200  -0.005310  -0.003516 -12.076600   0.002380  -0.024317 -33.747100   6.613620  -9.780970 -28.074800   0.029016  -0.042195 -19.660800   0.025426  -0.025296 -28.677800  -2.177540   3.975300 -40.363400   0.061993  -0.043053 -26.882000   0.048222  -0.014559 -28.723900  -2.181660   3.973550 -43.045600   0.040210  -0.038472 -28.668400   0.032409  -0.018032 -33.104400  -2.477610   3.795350 -49.779600   0.062843  -0.023327 -33.153200   0.044373   0.004978   9.837790  -0.098592   7.398940  67.980100  20.645300  -5.816360  -2.262510  -3.085130  14.186300 -11.771600 -11.689700  -3.069840 -37.206300  25.974200  55.028700  30.210700   0.004225  -0.004567  10.105300   0.009241  -0.001592  30.657100   7.153200  11.864100  25.691900  -0.005546   0.001273  17.984300   0.002966   0.005886  28.613500   2.545840   4.653690  39.571400  -0.000798   0.001803  26.354600   0.000880   0.013861  28.081200   2.501890   4.677430  33.280700   0.001472   0.004707  22.165000   0.001681   0.001371  35.403700   0.143871   0.202401  53.106000   0.004853  -0.000097  35.368600   0.001537   0.004047   2.495120  11.454600   4.393170   0.925325   0.244176   6.585090  -0.973109  -4.345150   3.306810   0.000000   0.000000  -0.000000   1.557970   9.538960  -1.095290  -0.486698   1.052700  -5.982940  -0.031117  -2.977660  -0.373606   0.000000   0.000000  -0.000000
